<svg xmlns="http://www.w3.org/2000/svg" xmlns:xlink="http://www.w3.org/1999/xlink" viewBox="0 0 350 330">
  <g>
    <path id="cabin-contour" d="M175.44,249.28h48.36a13.27,13.27,0,0,0,13-10.65l3.74-18.32H172.36v25.89A3.09,3.09,0,0,0,175.44,249.28Z" fill="none" stroke="#fff" stroke-linecap="round" stroke-linejoin="round" stroke-width="2">
        <animate
          attributeName="d"
          repeatCount="indefinite"
          dur="1"
          values="M 175.44 249.28 L 175.44 249.28 L 223.8 249.28 C 226.863 249.278 229.831 248.216 232.201 246.275 C 234.57 244.334 236.195 241.633 236.8 238.63 L 240.54 220.31 L 172.36 220.31 L 172.36 246.2 C 172.363 247.016 172.688 247.798 173.265 248.375 C 173.842 248.952 174.624 249.277 175.44 249.28 L 175.44 249.28; M 177 245 L 200.53 245 L 224.059 245 C 227.159 244.998 229.102 243.675 231.5 242 C 233.898 240.325 236 238.5 237.215 235.809 L 241 220 L 172 220 L 174 240.5 C 174.003 241.204 174.416 243.002 175 243.5 C 175.584 243.998 176.174 244.998 177 245 L 177 245; M 175.44 249.28 L 175.44 249.28 L 223.8 249.28 C 226.863 249.278 229.831 248.216 232.201 246.275 C 234.57 244.334 236.195 241.633 236.8 238.63 L 240.54 220.31 L 172.36 220.31 L 172.36 246.2 C 172.363 247.016 172.688 247.798 173.265 248.375 C 173.842 248.952 174.624 249.277 175.44 249.28 L 175.44 249.28"/>
    </path>

    <path id="main-window" d="M235.79,241.69h-9.22a8.31,8.31,0,0,1-8.28-8.31V220.31" fill="none" stroke="#fff" stroke-linecap="round" stroke-miterlimit="10" stroke-width="2">
        <animate
          attributeName="d"
          repeatCount="indefinite"
          dur="1"
          values="M235.79 241.69H226.57C224.371 241.682 222.265 240.803 220.713 239.245C219.161 237.688 218.29 235.579 218.29 233.38V220.31; M234 239.5H225.043C222.908 239.493 220.862 238.67 219.354 237.213C217.846 235.756 217 233.783 217 231.726V219.5; M235.79 241.69H226.57C224.371 241.682 222.265 240.803 220.713 239.245C219.161 237.688 218.29 235.579 218.29 233.38V220.31"/>
    </path>


    <path id="left-window" d="M185.64,231.88h-2.05a3.45,3.45,0,0,0-3.43,3.45v2.92a3.45,3.45,0,0,0,3.43,3.45h2.05a3.45,3.45,0,0,0,3.43-3.45v-2.92A3.45,3.45,0,0,0,185.64,231.88Z" fill="none" stroke="#fff" stroke-linecap="round" stroke-linejoin="round" stroke-width="2">
       <animateTransform
          attributeName="transform"
          type="translate"
          values="0,1; 0,-1; 0,1"
          dur="1"
          repeatCount="indefinite"
          fill="freeze"/>
    </path>

    <path d="M205,227.08c43.38,0,74.86-15.55,74.86-37s-31.48-37-74.86-37c-27.94,0-55.36,13.53-73.46,24.87a14.3,14.3,0,0,0,0,24.21c18.09,11.33,45.52,24.87,73.46,24.87" fill="#068e4d"/>
    <path d="M205,227.08c43.38,0,74.86-15.55,74.86-37s-31.48-37-74.86-37c-27.94,0-55.36,13.53-73.46,24.87a14.3,14.3,0,0,0,0,24.21C149.63,213.54,177.06,227.08,205,227.08Z" fill="none" stroke="#fff" stroke-width="2"/>

    <g id="bottom-left-wing">
        <path d="M123.23,207.39h9.16a3.29,3.29,0,0,0,3.29-3.3v-5.71a3.29,3.29,0,0,0-3.29-3.3H115.57a1.32,1.32,0,0,0-1.32,1.32v2a9,9,0,0,0,9,9" fill="#068e4d"/>
        <path d="M123.23,207.39h9.16a3.29,3.29,0,0,0,3.29-3.3v-5.71a3.29,3.29,0,0,0-3.29-3.3H115.57a1.32,1.32,0,0,0-1.32,1.32v2A9,9,0,0,0,123.23,207.39Z" fill="none" stroke="#fff" stroke-linecap="round" stroke-linejoin="round" stroke-width="2"/>
        <animateTransform
           attributeName="transform"
           type="translate"
           values="0,-3; 0,3; 0,-3"
           dur="1"
           repeatCount="indefinite"
           fill="freeze"/>
    </g>
    <g id="top-left-wing">
        <path d="M123.23,173.34h9.16a3.29,3.29,0,0,1,3.29,3.3v5.71a3.29,3.29,0,0,1-3.29,3.3H115.57a1.32,1.32,0,0,1-1.32-1.32v-2a9,9,0,0,1,9-9" fill="#068e4d"/>
        <path d="M123.23,173.34h9.16a3.29,3.29,0,0,1,3.29,3.3v5.71a3.29,3.29,0,0,1-3.29,3.3H115.57a1.32,1.32,0,0,1-1.32-1.32v-2A9,9,0,0,1,123.23,173.34Z" fill="none" stroke="#fff" stroke-linecap="round" stroke-linejoin="round" stroke-width="2"/>
        <animateTransform
          attributeName="transform"
          type="translate"
          values="0,-3; 0,3; 0,-3"
          dur="1"
          repeatCount="indefinite"
          fill="freeze"/>
     </g>


    <path id="top-body-line" d="M205,176.09c-28.23,0-56.07,5.76-72.81,10-3.95,1-6,2.66-6.08,4.34A12.93,12.93,0,0,1,132.18,179c16.74-10.5,44.58-24.68,72.81-24.68,44.81,0,73.64,16,73.64,35.75,0,0.12,0,.24,0,0.37-0.37-7.95-29.1-14.37-73.63-14.37" fill="#36e69a">
        <animate
          attributeName="d"
          repeatCount="indefinite"
          dur="1"
          values="M205 176.09C176.77 176.09 148.93 181.85 132.19 186.09C128.24 187.09 126.19 188.75 126.11 190.43C126.028 188.159 126.546 185.908 127.612 183.901C128.678 181.894 130.253 180.204 132.18 179C148.92 168.5 176.76 154.32 204.99 154.32C249.8 154.32 278.63 170.32 278.63 190.07C278.63 190.19 278.63 190.31 278.63 190.44C278.26 182.49 249.53 176.07 205 176.07; M205 180.5C176.770 180.50 148.93 181.85 132.19 186.09C128.24 187.09 126.19 188.75 126.11 190.43C126.028 188.159 126.546 185.908 127.612 183.901C128.678 181.894 130.253 180.204 132.18 179C148.92 168.5 176.76 154.32 204.99 154.32C249.8 154.32 278.63 170.32 278.63 190.07C278.63 190.19 278.63 190.31 278.63 190.44C278.26 182.49 249.53 180.50 205 180.5; M205 176.09C176.77 176.09 148.93 181.85 132.19 186.09C128.24 187.09 126.19 188.75 126.11 190.43C126.028 188.159 126.546 185.908 127.612 183.901C128.678 181.894 130.253 180.204 132.18 179C148.92 168.5 176.76 154.32 204.99 154.32C249.8 154.32 278.63 170.32 278.63 190.07C278.63 190.19 278.63 190.31 278.63 190.44C278.26 182.49 249.53 176.07 205 176.07"
          />
    </path>
    <path id="bottom-body-line" d="M132.18,195.12c16.74,4.27,44.58,10,72.81,10,44.14,0,72.75-6.32,73.6-14.18-0.86,19.34-29.45,34.86-73.6,34.86-28.23,0-56.07-14.19-72.81-24.68a12.88,12.88,0,0,1-6-10.18c0.26,1.61,2.26,3.18,6,4.14" fill="#068e4d">
        <animate
          attributeName="d"
          repeatCount="indefinite"
          dur="1"
          values="M132.18 195.12C148.92 199.39 176.76 205.12 204.99 205.12C249.13 205.12 277.74 198.8 278.59 190.94C277.73 210.28 249.14 225.8 204.99 225.8C176.76 225.8 148.92 211.61 132.18 201.12C130.44 200.025 128.988 198.53 127.944 196.759C126.9 194.988 126.295 192.993 126.18 190.94C126.44 192.55 128.44 194.12 132.18 195.08; M132.18 195.12C148.92 199.39 176.76 205.12 204.99 205.12C249.13 205.12 277.74 198.8 278.59 190.94C277.73 210.28 249.14 225.8 204.99 225.8C176.76 225.8 148.92 211.61 132.18 201.12C130.44 200.025 128.988 198.53 127.944 196.759C126.9 194.988 126.295 192.993 126.18 190.94C126.44 192.55 128.44 194.12 132.18 195.08; M132.18 195.12C148.92 199.39 176.76 205.12 204.99 205.12C249.13 205.12 277.74 198.8 278.59 190.94C277.73 210.28 249.14 225.8 204.99 225.8C176.76 225.8 148.92 211.61 132.18 201.12C130.44 200.025 128.988 198.53 127.944 196.759C126.9 194.988 126.295 192.993 126.18 190.94C126.44 192.55 128.44 194.12 132.18 195.08"/>
    </path>
    <path id="middle-body-line" d="M132.18,186.12c16.74-4.27,44.58-10,72.81-10,44.53,0,73.26,6.43,73.61,14.38,0,0.17,0,.34,0,0.51-0.85,7.86-29.45,14.17-73.6,14.17-28.23,0-56.07-5.76-72.81-10-3.79-1-5.79-2.53-6-4.13l0-.51c0.13-1.69,2.15-3.36,6.1-4.37" fill="#25b774">
      <animate
          attributeName="d"
          repeatCount="indefinite"
          dur="1"
          values="M132.18 186.12C148.92 181.85 176.76 176.12 204.99 176.12C249.52 176.12 278.25 182.55 278.6 190.5C278.6 190.67 278.6 190.84 278.6 191.01C277.75 198.87 249.15 205.18 205 205.18C176.77 205.18 148.93 199.42 132.19 195.18C128.4 194.18 126.4 192.65 126.19 191.05V190.54C126.32 188.85 128.34 187.18 132.29 186.17; M132.18 186.12C148.92 181.85 176.76 180.5 204.99 180.5C249.52 180.5 278.25 182.55 278.6 190.5C278.6 190.67 278.6 190.84 278.6 191.01C277.75 198.87 249.14 210 204.99 210C176.76 210 148.93 199.42 132.19 195.18C128.4 194.18 126.4 192.65 126.19 191.05V190.54C126.32 188.85 128.34 187.18 132.29 186.17; M132.18 186.12C148.92 181.85 176.76 176.12 204.99 176.12C249.52 176.12 278.25 182.55 278.6 190.5C278.6 190.67 278.6 190.84 278.6 191.01C277.75 198.87 249.15 205.18 205 205.18C176.77 205.18 148.93 199.42 132.19 195.18C128.4 194.18 126.4 192.65 126.19 191.05V190.54C126.32 188.85 128.34 187.18 132.29 186.17"
          />
    </path>




 <g id="top-right-wing">
    <path d="M123.23,173.34h9.16a3.29,3.29,0,0,1,3.29,3.3v5.71a3.29,3.29,0,0,1-3.29,3.3H115.57a1.32,1.32,0,0,1-1.32-1.32v-2a9,9,0,0,1,9-9" fill="#068e4d"/>
    <path d="M123.23,173.34h9.16a3.29,3.29,0,0,1,3.29,3.3v5.71a3.29,3.29,0,0,1-3.29,3.3H115.57a1.32,1.32,0,0,1-1.32-1.32v-2A9,9,0,0,1,123.23,173.34Z" fill="none" stroke="#fff" stroke-linecap="round" stroke-linejoin="round" stroke-width="2"/>
      <animateTransform
        attributeName="transform"
        type="translate"
        values="0,3; 0,-3; 0,3"
        dur="1"
        repeatCount="indefinite"
        fill="freeze"/>
 </g>



  <g id="bottom-right-wing">
    <path  d="M123.23,207.39h9.16a3.29,3.29,0,0,0,3.29-3.3v-5.71a3.29,3.29,0,0,0-3.29-3.3H115.57a1.32,1.32,0,0,0-1.32,1.32v2a9,9,0,0,0,9,9" fill="#068e4d"/>
    <path d="M123.23,207.39h9.16a3.29,3.29,0,0,0,3.29-3.3v-5.71a3.29,3.29,0,0,0-3.29-3.3H115.57a1.32,1.32,0,0,0-1.32,1.32v2A9,9,0,0,0,123.23,207.39Z" fill="none" stroke="#fff" stroke-linecap="round" stroke-linejoin="round" stroke-width="2"/>
      <animateTransform
        attributeName="transform"
        type="translate"
        values="0,3; 0,-3; 0,3"
        dur="1"
        repeatCount="indefinite"
        fill="freeze"/>
  </g>


  <g id="cloud1">
    <line x1="68.95" y1="107.8" x2="131.86" y2="107.8" fill="none" stroke="#fff" stroke-linecap="round" stroke-miterlimit="10" stroke-width="2">
      <animateTransform
        attributeName="transform"
        type="translate"
        from="180"
        to="-95"
        dur="2s"
        fill="freeze"
      />
    </line>
    <path d="M41.77,97.54H77.06a12.4,12.4,0,1,1,24.8,0h17.93" fill="none" stroke="#fff" stroke-linecap="round" stroke-miterlimit="10" stroke-width="2">
      <animateTransform
        attributeName="transform"
        type="translate"
        from="190"
        to="-100"
        dur="2s"
        fill="freeze"
      />
    </path>
    <animate
      attributeName="opacity"
      values="0; 1; 0"
      dur="1s"
      fill="freeze"
    />
  </g>

  <g id="cloud2">
    <line x1="258.96" y1="93.19" x2="298.74" y2="93.19" fill="none" stroke="#fff" stroke-linecap="round" stroke-miterlimit="10" stroke-width="2">
      <animateTransform
        attributeName="transform"
        type="translate"
        from="180"
        to="-200"
        dur="2.8"
        fill="freeze"
      />
    </line>
    <line x1="287.01" y1="82.91" x2="309.21" y2="82.91" fill="none" stroke="#fff" stroke-linecap="round" stroke-miterlimit="10" stroke-width="2">
      <animateTransform
        attributeName="transform"
        type="translate"
        from="180"
        to="-200"
        dur="2.8"
        fill="freeze"
      />
    </line>
    <path d="M278.75,82.91H251.39a12.4,12.4,0,1,0-24.8,0H208.65" fill="none" stroke="#fff" stroke-linecap="round" stroke-miterlimit="10" stroke-width="2">
      <animateTransform
        attributeName="transform"
        type="translate"
        from="180"
        to="-200"
        dur="2.8"
        fill="freeze"
      />
    </path>
    <animate
      attributeName="opacity"
      values="0; 1; 0"
      dur="1s"
      fill="freeze"
    />
  </g>

<g id="smoky">
  <line x1="106.25" y1="179.49" x2="84.05" y2="179.49" fill="none" stroke="#fff" stroke-linecap="round" stroke-miterlimit="10" stroke-width="2">
    <animate
      attributeName="x2"
      begin="0.1"
      values="84.05; 89.05; 84.05;"
      dur="0.2"
      repeatCount="indefinite"
    />
  </line>
  <line x1="106.25" y1="201.23" x2="84.05" y2="201.23" fill="none" stroke="#fff" stroke-linecap="round" stroke-miterlimit="10" stroke-width="2">
    <animate
      attributeName="x2"
      begin="0.2"
      values="84.05; 89.05; 84.05;"
      dur="0.2"
      repeatCount="indefinite"
    />
  </line>
  <line x1="106.25" y1="190.98" x2="68.77" y2="190.98" fill="none" stroke="#fff" stroke-linecap="round" stroke-miterlimit="10" stroke-width="2">
    <animate
      attributeName="x2"
      begin="0.3"
      values="68.77; 74.77; 68.77;"
      dur="0.2"
      repeatCount="indefinite"
    />
  </line>
</g>

  <g>
    <path d="M289.94,327.88H244.88L212.8,296.58a1.89,1.89,0,0,0-2.44,0l-10.2,10.23a1.72,1.72,0,0,1-2.25,0l-19-20.17a2.4,2.4,0,0,0-3.1,0l-26.42,25.64a1.71,1.71,0,0,1-2.25,0l-2.63-2.92a1.71,1.71,0,0,0-2.31,0L124.63,329H80.78" fill="none" stroke="#fff" stroke-linecap="round" stroke-miterlimit="10" stroke-width="2"/>
    <path d="M289.94,328H200.15c-0.86,0-1.56,0-2.25,0h-19c-1.5,0-2.23,0-3.1,0h-32.3c-1.09,0-1.66,0-2.31,0H80.78" fill="none" stroke="#fff" stroke-linecap="round" stroke-miterlimit="10" stroke-width="2"/>
  </g>
  <animate
    attributeName="opacity"
    fill="freeze"
    dur="1"
    begin="2"
    from="1"
    to="0"
    values="1; 0.5; 0; 0"
    keyTimes="0; 0.06; 0.1; 1"
  />
</g>

<g>
  <defs>
    <clipPath id="right-window-container">
      <path
        d="M 275 225.43 C 275 225.43 275 225.43 275 225.43 C 275 225.43 275 225.43 275 225.43 C 279.651 225.404 284.103 223.538 287.384 220.24 C 290.665 216.943 292.507 212.481 292.51 207.83 C 292.51 203.627 292.51 199.423 292.51 195.22 C 292.51 191.017 292.51 186.813 292.51 182.61 C 292.51 178.407 292.51 174.203 292.51 170 C 292.505 165.351 290.661 160.893 287.38 157.6 C 284.099 154.306 279.649 152.444 275 152.42 L 257.87 152.42 C 253.22 152.441 248.766 154.302 245.484 157.596 C 242.201 160.89 240.355 165.349 240.35 170 L 240.35 207.85 C 240.355 212.501 242.201 216.96 245.484 220.254 C 248.766 223.548 253.22 225.409 257.87 225.43 L 275 225.43"
        fill="none"
        stroke="#fff"
        stroke-linecap="round"
        stroke-linejoin="round"
        stroke-width="2"
      />
    </clipPath>
  </defs>

  </g>

  <g clip-path="url(#right-window-container)" xmlns="http://www.w3.org/2000/svg">

    <svg xmlns="http://www.w3.org/2000/svg" width="50.05" height="41" viewBox="-375 -250 120 80" style="overflow: visible">
      <path d="M248.18 198.34H311.09" stroke="white" opacity="0" stroke-width="2" stroke-miterlimit="10" stroke-linecap="round">
        <animate
          attributeName="opacity"
          begin="2"
          values="0; 1; 0"
          dur="2.8"
        />
        <animateTransform
          attributeName="transform"
          type="translate"
          begin="2"
          from="50"
          to="-100"
          dur="2.8"
        />
      </path>
      <path d="M221 188.08H256.29C256.29 184.791 257.596 181.637 259.922 179.312C262.247 176.986 265.401 175.68 268.69 175.68C271.979 175.68 275.133 176.986 277.458 179.312C279.784 181.637 281.09 184.791 281.09 188.08H299.02" fill="none" stroke="white" stroke-width="2" opacity="0" stroke-miterlimit="10" stroke-linecap="round">
        <animate
          attributeName="opacity"
          dur="2.8"
          begin="2"
          values="0; 1; 0"
        />
        <animateTransform
          attributeName="transform"
          type="translate"
          dur="2.8"
          begin="2"
          from="50"
          to="-100"
        />
      </path>
    </svg>
    <svg xmlns="http://www.w3.org/2000/svg" width="50.05" height="41" opacity="0" viewBox="-425 -335 120 80" style="overflow: visible">
      <path d="M278.75,82.91H251.39a12.4,12.4,0,1,0-24.8,0H208.65" fill="none" stroke="#fff" stroke-linecap="round" stroke-miterlimit="10" stroke-width="2">
        <animateTransform
          attributeName="transform"
          type="translate"
          begin="4"
          from="50"
          to="-100"
          dur="2.8"
          repeatCount="indefinite"
        />
      </path>
      <line x1="287.01" y1="82.91" x2="309.21" y2="82.91" fill="none" stroke="#fff" stroke-linecap="round" stroke-miterlimit="10" stroke-width="2">
        <animateTransform
          attributeName="transform"
          type="translate"
          begin="4"
          from="50"
          to="-100"
          dur="2.8"
          repeatCount="indefinite"
        />
      </line>
      <line x1="258.96" y1="93.19" x2="298.74" y2="93.19" fill="none" stroke="#fff" stroke-linecap="round" stroke-miterlimit="10" stroke-width="2">
        <animateTransform
          attributeName="transform"
          type="translate"
          begin="4"
          from="50"
          to="-100"
          dur="2.8"
          repeatCount="indefinite"
        />
      </line>

      <animate
        attributeName="opacity"
        begin="4"
        values="0; 1; 0;"
        dur="2.8"
        repeatCount="indefinite"
      />
    </svg>
  </g>

<g>
  <path id="right-window" d="M204.25 231.88H202.2C201.288 231.885 200.416 232.251 199.773 232.898C199.131 233.544 198.77 234.418 198.77 235.33V238.25C198.77 239.162 199.131 240.036 199.773 240.682C200.416 241.329 201.288 241.695 202.2 241.7H204.25C205.162 241.695 206.034 241.329 206.677 240.682C207.319 240.036 207.68 239.162 207.68 238.25V235.33C207.681 234.878 207.594 234.431 207.422 234.013C207.25 233.595 206.998 233.215 206.68 232.895C206.361 232.574 205.983 232.32 205.566 232.146C205.149 231.972 204.702 231.881 204.25 231.88V231.88Z" fill="none" stroke="#fff" stroke-linecap="round" stroke-linejoin="round" stroke-width="2">
    <animateTransform
       attributeName="transform"
       type="translate"
       values="0,1; 0,-1; 0,1"
       dur="1"
       repeatCount="indefinite"
       fill="freeze"/>

    <animate
      attributeName="d"
      begin="1.8"
      dur="0.4"
      fill="freeze"
      from="M 204.25 241.7 C 205.162 241.695 206.034 241.329 206.677 240.682 C 207.319 240.036 207.68 239.162 207.68 238.25 C 207.68 237.277 207.68 236.303 207.68 235.33 C 207.681 234.878 207.594 234.431 207.422 234.013 C 207.25 233.595 206.998 233.215 206.68 232.895 C 206.361 232.574 205.983 232.32 205.566 232.146 C 205.149 231.972 204.702 231.881 204.25 231.88 C 204.25 231.88 204.25 231.88 204.25 231.88 C 204.25 231.88 204.25 231.88 204.25 231.88 L 202.2 231.88 C 201.288 231.885 200.416 232.251 199.773 232.898 C 199.131 233.544 198.77 234.418 198.77 235.33 L 198.77 238.25 C 198.77 239.162 199.131 240.036 199.773 240.682 C 200.416 241.329 201.288 241.695 202.2 241.7 L 204.25 241.7"
      to="M 275 225.43 C 275 225.43 275 225.43 275 225.43 C 275 225.43 275 225.43 275 225.43 C 279.651 225.404 284.103 223.538 287.384 220.24 C 290.665 216.943 292.507 212.481 292.51 207.83 C 292.51 203.627 292.51 199.423 292.51 195.22 C 292.51 191.017 292.51 186.813 292.51 182.61 C 292.51 178.407 292.51 174.203 292.51 170 C 292.505 165.351 290.661 160.893 287.38 157.6 C 284.099 154.306 279.649 152.444 275 152.42 L 257.87 152.42 C 253.22 152.441 248.766 154.302 245.484 157.596 C 242.201 160.89 240.355 165.349 240.35 170 L 240.35 207.85 C 240.355 212.501 242.201 216.96 245.484 220.254 C 248.766 223.548 253.22 225.409 257.87 225.43 L 275 225.43"
    />
  </path>
</g>

<g id="chair" opacity="0">
  <animate
    attributeName="opacity"
    begin="2"
    dur="0.5"
    fill="freeze"
    from="0"
    to="1"
  />
  <animateTransform
    attributeName="transform"
    type="translate"
    begin="2"
    from="-100"
    to="0"
    dur="0.2"
    fill="freeze"
  />
  <svg width="350" height="330" viewBox="0 0 350 330" fill="none" xmlns="http://www.w3.org/2000/svg">
      <g id="skis">
        <animateTransform
          attributeName="transform"
          type="translate"
          begin="2"
          from="-50"
          to="0"
          values="-50; 10; -2; 0"
          keyTimes="0; 0.8; 0.9; 1"
          dur="0.3"
          fill="freeze"
        />
        <animate
          attributeName="opacity"
          fill="freeze"
          from="0"
          to="1"
          dur="1"
          begin="1.8"
        />
        <path
          d="M91.14 327.79C90.5631 327.739 90.0296 327.463 89.6552 327.021C89.2807 326.579 89.0956 326.007 89.14 325.43L102.8 132.26C103.9 116.77 98 110.34 94.05 107.79C93.8264 107.639 93.6532 107.425 93.5526 107.174C93.4521 106.924 93.4288 106.649 93.4858 106.386C93.5429 106.122 93.6776 105.881 93.8726 105.695C94.0676 105.509 94.314 105.385 94.58 105.34C103 104 122.18 104 120 134.19L106.43 326.67C106.379 327.245 106.104 327.777 105.664 328.151C105.225 328.525 104.656 328.712 104.08 328.67L91.14 327.79Z"
          fill="white"/>
        <path
          d="M124.5 328.17C124.211 328.166 123.926 328.105 123.66 327.991C123.395 327.877 123.155 327.712 122.953 327.504C122.752 327.297 122.593 327.053 122.486 326.784C122.379 326.516 122.326 326.229 122.33 325.94L124.57 132.31C124.76 116.78 118.5 110.7 114.41 108.4C114.18 108.261 113.997 108.057 113.884 107.814C113.771 107.57 113.733 107.299 113.774 107.034C113.816 106.769 113.936 106.522 114.119 106.326C114.302 106.129 114.539 105.991 114.8 105.93C123.16 104.03 142.29 102.93 141.95 133.21L139.7 326.14C139.697 326.429 139.638 326.714 139.525 326.98C139.412 327.246 139.248 327.487 139.042 327.69C138.835 327.892 138.591 328.052 138.323 328.16C138.056 328.268 137.769 328.323 137.48 328.32L124.5 328.17Z"
          fill="white"/>
      </g>
      <g id="seat">
        <animate
          attributeName="opacity"
          fill="freeze"
          from="0"
          to="1"
          dur="1"
          begin="1"
        />
        <path
          d="M257.5 259.82H196.76V245.63H251.85C254.479 245.635 256.999 246.684 258.855 248.546C260.711 250.408 261.753 252.931 261.75 255.56C261.747 256.686 261.299 257.766 260.502 258.562C259.706 259.359 258.626 259.807 257.5 259.81"
          fill="#A67EE5"/>
        <path
          d="M257.5 259.82H196.76V245.63H251.85C254.479 245.635 256.999 246.684 258.855 248.546C260.711 250.408 261.753 252.931 261.75 255.56C261.75 256.688 261.303 257.77 260.506 258.569C259.709 259.367 258.628 259.817 257.5 259.82Z"
          stroke="white" stroke-width="2" stroke-miterlimit="10"/>
        <path d="M185.47 328.31H171.5L165.19 286.72H179.16L185.47 328.31Z" fill="#A67EE5"/>
        <path d="M185.47 328.31H171.5L165.19 286.72H179.16L185.47 328.31Z" stroke="white" stroke-width="2"
              stroke-miterlimit="10"/>
        <path d="M235.03 328.31H221.06L214.76 286.72H228.72L235.03 328.31Z" fill="#A67EE5"/>
        <path d="M235.03 328.31H221.06L214.76 286.72H228.72L235.03 328.31Z" stroke="white" stroke-width="2"
              stroke-miterlimit="10"/>
        <path
          d="M281.33 272.45H225.44C224.099 272.45 222.803 271.968 221.788 271.093C220.773 270.217 220.107 269.006 219.91 267.68L209.05 195.44C211.935 193.051 213.989 189.808 214.915 186.178C215.841 182.548 215.592 178.717 214.204 175.238C212.816 171.758 210.36 168.808 207.19 166.812C204.019 164.816 200.298 163.877 196.56 164.13H141.48L141.16 267L156.93 290.35L204.12 298.74C205.472 299.235 206.9 299.489 208.34 299.49H281.34C284.928 299.49 288.37 298.065 290.907 295.527C293.445 292.99 294.87 289.548 294.87 285.96C294.87 282.372 293.445 278.93 290.907 276.393C288.37 273.855 284.928 272.43 281.34 272.43"
          fill="#A67EE5"/>
        <path
          d="M281.33 272.45H225.44C224.099 272.45 222.803 271.968 221.788 271.093C220.773 270.217 220.107 269.006 219.91 267.68L209.05 195.44C211.935 193.051 213.989 189.808 214.915 186.178C215.841 182.548 215.592 178.717 214.204 175.238C212.816 171.758 210.36 168.808 207.19 166.812C204.019 164.816 200.298 163.877 196.56 164.13H141.48L141.16 267L156.93 290.35L204.12 298.74C205.472 299.235 206.9 299.489 208.34 299.49H281.34C284.836 299.354 288.143 297.87 290.568 295.348C292.992 292.826 294.346 289.464 294.345 285.965C294.344 282.467 292.987 279.105 290.561 276.585C288.134 274.065 284.826 272.583 281.33 272.45V272.45Z"
          stroke="white" stroke-width="2" stroke-miterlimit="10"/>
        <path
          d="M162.42 267.69L151.56 195.45C153.859 193.547 155.641 191.095 156.738 188.319C157.836 185.544 158.215 182.536 157.839 179.576C157.463 176.615 156.346 173.797 154.589 171.384C152.833 168.971 150.496 167.041 147.794 165.773C145.092 164.505 142.114 163.94 139.136 164.132C136.157 164.323 133.276 165.263 130.758 166.866C128.241 168.469 126.169 170.682 124.736 173.3C123.303 175.918 122.554 178.856 122.56 181.84C122.562 183.619 122.829 185.389 123.35 187.09L138.65 289C139.086 291.928 140.558 294.602 142.799 296.536C145.039 298.47 147.9 299.536 150.86 299.54H223.86C227.383 299.444 230.73 297.977 233.189 295.451C235.647 292.925 237.022 289.54 237.022 286.015C237.022 282.49 235.647 279.105 233.189 276.579C230.73 274.053 227.383 272.586 223.86 272.49H167.95C166.61 272.484 165.316 271.998 164.302 271.122C163.288 270.245 162.62 269.035 162.42 267.71"
          fill="#A67EE5"/>
        <path
          d="M162.42 267.69L151.56 195.45C153.859 193.547 155.641 191.095 156.738 188.319C157.836 185.544 158.215 182.536 157.839 179.576C157.463 176.615 156.346 173.797 154.589 171.384C152.833 168.971 150.496 167.041 147.794 165.773C145.092 164.505 142.114 163.94 139.136 164.132C136.157 164.323 133.276 165.263 130.758 166.866C128.241 168.469 126.169 170.682 124.736 173.3C123.303 175.918 122.554 178.856 122.56 181.84C122.562 183.619 122.829 185.389 123.35 187.09L138.65 289C139.086 291.928 140.558 294.602 142.799 296.536C145.039 298.47 147.9 299.536 150.86 299.54H223.86C227.383 299.444 230.73 297.977 233.189 295.451C235.647 292.925 237.022 289.54 237.022 286.015C237.022 282.49 235.647 279.105 233.189 276.579C230.73 274.053 227.383 272.586 223.86 272.49H167.95C166.607 272.483 165.31 271.995 164.296 271.114C163.281 270.234 162.616 269.019 162.42 267.69Z"
          stroke="white" stroke-width="2" stroke-miterlimit="10"/>
        <path
          d="M206.26 259.82H134.26L132.13 245.63H200.6C203.229 245.635 205.749 246.684 207.605 248.546C209.461 250.408 210.503 252.931 210.5 255.56C210.497 256.686 210.049 257.766 209.252 258.562C208.456 259.359 207.376 259.807 206.25 259.81"
          fill="#A67EE5"/>
        <path
          d="M206.26 259.82H134.26L132.13 245.63H200.6C203.229 245.635 205.749 246.684 207.605 248.546C209.461 250.408 210.503 252.931 210.5 255.56C210.5 256.686 210.054 257.767 209.259 258.565C208.465 259.364 207.386 259.815 206.26 259.82Z"
          stroke="white" stroke-width="2" stroke-miterlimit="10"/>
        <path d="M151.57 195.44H209.05" stroke="white" stroke-width="2" stroke-miterlimit="10"
              stroke-linecap="round"/>
      </g>
      <g id="plant" style="transform-origin: bottom">
        <animateTransform
          id="swing"
          type="rotate"
          attributeName="transform"
          values="-5; 5; -3; 3; -2; 2;"
          fill="freeze"
          dur="2"
          begin="2"
        />
        <animateTransform
          type="rotate"
          attributeName="transform"
          values="2; -2; 2"
          repeatCount="indefinite"
          dur="2"
          begin="swing.end"
        />
        <animateTransform
          additive="sum"
          attributeName="transform"
          type="translate"
          begin="2"
          from="-50"
          to="0"
          dur="0.3"
          fill="freeze"
        />
        <animate
          attributeName="opacity"
          fill="freeze"
          from="0"
          to="1"
          dur="1"
          begin="1.3"
        />
        <path
          d="M79.18 194C85.4261 202.316 90.6596 211.346 94.77 220.9C87.606 213.464 80.9004 205.599 74.69 197.35C68.4883 189.072 62.7881 180.43 57.62 171.47C65.6734 178.1 72.9108 185.663 79.18 194"
          fill="#36E69A"/>
        <path
          d="M80.94 214.39C89.3383 220.276 96.9939 227.156 103.74 234.88C94.8077 230.187 86.1775 224.94 77.9 219.17C69.7048 213.439 61.8823 207.194 54.48 200.47C63.8466 203.987 72.7358 208.663 80.94 214.39"
          fill="#36E69A"/>
        <path
          d="M93.66 205.48C96.4274 215.47 99.7935 225.284 103.74 234.87C103.5 224.55 101.988 214.3 99.24 204.35C96.3865 194.098 92.3388 184.217 87.18 174.91C88.7226 185.22 90.8832 195.429 93.65 205.48"
          fill="#36E69A"/>
        <path
          d="M107.32 213.52C107.377 223.776 108.065 234.019 109.38 244.19C111.898 234.372 113.161 224.275 113.14 214.14C113.075 203.564 111.732 193.034 109.14 182.78C107.854 192.976 107.229 203.244 107.27 213.52"
          fill="#25B774"/>
        <path
          d="M83.08 229.56C92.4142 233.336 101.245 238.253 109.37 244.2C99.7922 241.753 90.3853 238.679 81.21 235C72.1574 231.339 63.3493 227.1 54.84 222.31C64.5308 223.516 74.0258 225.966 83.09 229.6"
          fill="#25B774"/>
        <path
          d="M88.06 243.83C97.6806 246.377 106.941 250.13 115.62 255C105.908 253.803 96.2919 251.932 86.84 249.4C77.5057 246.893 68.346 243.777 59.42 240.07C69.0895 240.093 78.7168 241.347 88.07 243.8"
          fill="#25B774"/>
        <path
          d="M118.71 224.79C117.033 234.797 115.997 244.901 115.61 255.04C119.756 245.942 122.72 236.351 124.43 226.5C126.18 216.201 126.657 205.726 125.85 195.31C122.772 204.955 120.383 214.807 118.7 224.79"
          fill="#25B774"/>
        <path
          d="M98.86 262C108.367 264.957 117.462 269.103 125.93 274.34C116.275 272.737 106.742 270.468 97.4 267.55C88.1811 264.661 79.1617 261.17 70.4 257.1C80.056 257.521 89.6193 259.167 98.86 262Z"
          fill="#068E4D"/>
        <path
          d="M130.27 244.29C128.179 254.22 126.73 264.274 125.93 274.39C130.454 265.47 133.815 256.006 135.93 246.23C138.105 236.014 139.015 225.569 138.64 215.13C135.168 224.64 132.375 234.385 130.28 244.29"
          fill="#068E4D"/>
        <path
          d="M108.9 280.69C118.279 284.044 127.196 288.57 135.44 294.16C125.858 292.144 116.426 289.471 107.21 286.16C98.1172 282.886 89.2483 279.021 80.66 274.59C90.2934 275.409 99.7831 277.452 108.9 280.67"
          fill="#068E4D"/>
        <path
          d="M141 264.26C138.499 274.096 136.635 284.084 135.42 294.16C140.302 285.429 144.049 276.11 146.57 266.43C149.173 256.3 150.516 245.888 150.57 235.43C146.702 244.801 143.504 254.436 141 264.26"
          fill="#068E4D"/>
        <path d="M92.62 217.67C115.835 252.089 134.92 289.121 149.48 328" stroke="#36E69A" stroke-width="2"
              stroke-linecap="round" stroke-linejoin="round"/>
      </g>
        <path d="M72.03 329H295.52" stroke="white" stroke-width="2" stroke-miterlimit="10" stroke-linecap="round"/>
  </svg>
</g>



</svg>
